<?xml version="1.0" standalone="no"?>
<!DOCTYPE svg PUBLIC "-//W3C//DTD SVG 20010904//EN"
 "http://www.w3.org/TR/2001/REC-SVG-20010904/DTD/svg10.dtd">
<svg version="1.0" xmlns="http://www.w3.org/2000/svg"
 width="512.000000pt" height="512.000000pt" viewBox="0 0 512.000000 512.000000"
 preserveAspectRatio="xMidYMid meet">

<g transform="translate(0.000000,512.000000) scale(0.100000,-0.100000)"
fill="white" stroke="none">
<path d="M1333 4718 c-14 -16 -39 -100 -83 -275 l-62 -253 -74 0 c-83 0 -117
-12 -133 -47 -15 -33 -15 -513 0 -546 15 -32 49 -47 109 -47 43 0 50 -3 54
-22 3 -13 14 -144 26 -293 11 -148 22 -281 25 -296 3 -20 -2 -27 -26 -36 -16
-6 -33 -22 -38 -35 -6 -16 10 -290 45 -793 29 -424 54 -778 54 -788 0 -29 45
-67 80 -67 16 0 30 -3 30 -7 0 -5 20 -246 45 -538 l44 -530 26 -22 26 -23
1079 0 1079 0 26 22 26 23 44 530 c25 292 45 533 45 538 0 4 14 7 30 7 35 0
80 38 80 67 0 10 25 364 54 788 59 838 59 816 1 831 -20 5 -23 11 -20 32 3 15
14 149 25 297 12 149 23 280 26 293 4 19 11 22 54 22 62 0 96 15 110 50 7 18
10 112 8 288 -3 235 -5 263 -21 279 -14 14 -38 19 -122 21 l-104 4 -52 135
c-47 119 -56 137 -83 149 -17 7 -245 36 -506 64 -261 28 -785 84 -1165 125
-379 41 -702 75 -716 75 -14 0 -35 -10 -46 -22z m1229 -258 c607 -66 1107
-122 1112 -123 8 -3 56 -120 56 -138 0 -5 -513 -9 -1190 -9 -801 0 -1190 3
-1190 10 0 27 94 380 101 380 4 0 504 -54 1111 -120z m1436 -587 l2 -163
-1440 0 -1440 0 0 158 c0 87 3 162 7 165 3 4 650 6 1437 5 l1431 -3 3 -162z
m-178 -341 c0 -10 -11 -150 -25 -312 -14 -162 -25 -298 -25 -302 0 -4 -544 -8
-1210 -8 -665 0 -1210 4 -1210 8 0 4 -11 140 -25 302 -14 162 -25 302 -25 312
0 17 58 18 1260 18 1202 0 1260 -1 1260 -18z m15 -819 c-3 -27 -23 -320 -45
-653 -22 -333 -43 -624 -46 -647 l-5 -43 -1179 0 -1179 0 -5 53 c-3 28 -24
320 -46 647 -22 327 -42 616 -45 643 l-6 47 1281 0 1281 0 -6 -47z m-211
-1525 c-2 -18 -20 -231 -40 -473 -19 -242 -37 -446 -39 -452 -6 -19 -1964 -19
-1970 0 -2 6 -20 210 -40 452 -19 242 -38 455 -41 473 l-5 32 1070 0 1070 0
-5 -32z"/>
<path d="M2565 2601 c-256 -75 -477 -335 -517 -610 -29 -196 50 -372 199 -446
76 -37 208 -46 299 -20 228 66 427 270 502 515 66 218 10 432 -139 525 -86 55
-228 70 -344 36z m165 -148 c-14 -9 -61 -53 -105 -98 -63 -63 -95 -108 -150
-205 -60 -107 -84 -139 -170 -225 l-100 -100 -3 78 c-2 51 3 98 13 135 69 237
290 431 490 431 50 0 50 0 25 -16z m179 -130 c17 -60 13 -175 -8 -241 -84
-271 -375 -480 -566 -408 -39 16 -61 36 -37 36 16 0 171 151 216 211 25 33 67
101 93 151 30 56 73 118 113 161 63 68 140 127 166 127 7 0 18 -17 23 -37z"/>
</g>
</svg>
