<?xml version="1.0" standalone="no"?>
<!DOCTYPE svg PUBLIC "-//W3C//DTD SVG 20010904//EN"
 "http://www.w3.org/TR/2001/REC-SVG-20010904/DTD/svg10.dtd">
<svg version="1.0" xmlns="http://www.w3.org/2000/svg"
 width="512.000000pt" height="512.000000pt" viewBox="0 0 512.000000 512.000000"
 preserveAspectRatio="xMidYMid meet">

<g transform="translate(0.000000,512.000000) scale(0.100000,-0.100000)"
fill="white" stroke="none">
<path d="M1099 5056 c-102 -27 -171 -87 -218 -186 -25 -53 -26 -63 -26 -230 0
-167 1 -177 26 -230 35 -74 72 -116 136 -152 l53 -30 0 -274 0 -273 -442 -3
-443 -3 -57 -28 c-31 -15 -72 -45 -92 -67 l-36 -40 0 -289 0 -289 55 -50 55
-51 0 -1351 c0 -1310 1 -1352 19 -1388 25 -48 66 -87 113 -106 33 -14 279 -16
2320 -16 2201 0 2284 1 2323 19 49 23 89 64 109 113 14 33 16 189 16 1383 l0
1346 55 51 55 50 0 289 0 289 -36 40 c-20 22 -61 52 -92 67 l-57 28 -442 3
-443 3 0 274 0 274 46 22 c58 29 109 86 143 158 25 54 26 63 26 231 0 167 -1
177 -26 230 -49 103 -113 158 -216 185 -49 13 -250 15 -1468 14 -1084 0 -1421
-3 -1456 -13z m2922 -235 l29 -29 0 -152 0 -152 -29 -29 -29 -29 -1432 0
-1432 0 -29 29 -29 29 0 152 0 152 29 29 29 29 1432 0 1432 0 29 -29z m-181
-2611 l0 -2000 -265 0 -264 0 -3 593 c-3 545 -4 595 -21 632 -23 50 -80 110
-132 138 -40 22 -45 22 -595 22 -550 0 -555 0 -595 -22 -52 -28 -109 -88 -132
-138 -17 -37 -18 -87 -21 -632 l-3 -593 -264 0 -265 0 0 2000 0 2000 1280 0
1280 0 0 -2000z m-2780 1045 l0 -216 -420 3 -420 3 -27 28 c-28 27 -28 30 -31
166 -3 114 -1 145 13 171 30 58 40 59 483 60 l402 0 0 -215z m3835 201 c57
-24 67 -57 63 -217 -3 -136 -3 -139 -31 -166 l-27 -28 -420 -3 -420 -3 0 216
0 215 400 0 c324 0 407 -3 435 -14z m-3835 -741 l0 -105 -286 0 -286 0 -29
-29 -29 -29 0 -312 0 -312 29 -29 29 -29 286 0 286 0 0 -110 0 -110 -286 0
-286 0 -29 -29 -29 -29 0 -312 0 -312 29 -29 29 -29 286 0 286 0 0 -350 0
-350 -370 0 -370 0 0 1305 0 1305 370 0 370 0 0 -105z m3740 -1200 l0 -1305
-370 0 -370 0 0 350 0 350 286 0 286 0 29 29 29 29 0 312 0 312 -29 29 -29 29
-286 0 -286 0 0 110 0 110 286 0 286 0 29 29 29 29 0 312 0 312 -29 29 -29 29
-286 0 -286 0 0 105 0 105 370 0 370 0 0 -1305z m-3740 725 l0 -160 -210 0
-210 0 0 160 0 160 210 0 210 0 0 -160z m3420 0 l0 -160 -210 0 -210 0 0 160
0 160 210 0 210 0 0 -160z m-3420 -960 l0 -160 -210 0 -210 0 0 160 0 160 210
0 210 0 0 -160z m3420 0 l0 -160 -210 0 -210 0 0 160 0 160 210 0 210 0 0
-160z m-2030 -475 l0 -585 -210 0 -210 0 0 569 0 570 22 15 c18 13 56 16 210
16 l188 0 0 -585z m618 569 l22 -15 0 -570 0 -569 -210 0 -210 0 0 585 0 585
188 0 c154 0 192 -3 210 -16z"/>
<path d="M1553 3934 c-62 -31 -63 -41 -63 -463 0 -415 2 -432 55 -467 26 -17
87 -18 1015 -18 928 0 989 1 1015 18 53 35 55 52 55 467 0 326 -2 386 -16 414
-32 68 24 65 -1056 65 -863 0 -977 -2 -1005 -16z m527 -469 l0 -265 -185 0
-185 0 0 265 0 265 185 0 185 0 0 -265z m750 0 l0 -265 -270 0 -270 0 0 265 0
265 270 0 270 0 0 -265z m580 0 l0 -265 -185 0 -185 0 0 265 0 265 185 0 185
0 0 -265z"/>
<path d="M1869 2771 c-260 -5 -319 -9 -334 -21 -42 -35 -45 -61 -45 -461 0
-326 2 -386 16 -414 32 -68 -24 -65 1054 -65 1078 0 1022 -3 1054 65 23 47 24
777 2 830 -28 67 10 63 -746 68 -377 2 -827 1 -1001 -2z m211 -476 l0 -265
-185 0 -185 0 0 265 0 265 185 0 185 0 0 -265z m750 0 l0 -265 -270 0 -270 0
0 265 0 265 270 0 270 0 0 -265z m580 0 l0 -265 -185 0 -185 0 0 265 0 265
185 0 185 0 0 -265z"/>
</g>
</svg>
