<?xml version="1.0" standalone="no"?>
<!DOCTYPE svg PUBLIC "-//W3C//DTD SVG 20010904//EN"
 "http://www.w3.org/TR/2001/REC-SVG-20010904/DTD/svg10.dtd">
<svg version="1.0" xmlns="http://www.w3.org/2000/svg"
 width="512.000000pt" height="512.000000pt" viewBox="0 0 512.000000 512.000000"
 preserveAspectRatio="xMidYMid meet">

<g transform="translate(0.000000,512.000000) scale(0.100000,-0.100000)"
fill="white" stroke="none">
<path d="M1659 5105 c-61 -19 -131 -83 -163 -147 -35 -71 -36 -171 -2 -243 38
-83 151 -165 228 -165 17 0 18 -56 18 -1525 l0 -1525 -137 0 c-195 0 -292 -31
-395 -123 -43 -39 -953 -1139 -1005 -1216 -31 -46 -29 -84 6 -123 24 -27 36
-33 70 -33 34 0 47 7 75 35 19 19 233 278 476 575 243 297 465 564 494 593 92
95 72 92 695 92 621 0 596 3 692 -89 32 -31 270 -308 529 -616 259 -308 483
-568 498 -577 38 -25 75 -22 110 7 35 29 47 70 33 107 -5 13 -66 92 -135 173
-69 82 -126 152 -126 155 0 14 115 141 148 162 64 42 97 48 266 48 149 0 165
-2 211 -24 65 -31 94 -63 334 -366 225 -284 241 -298 307 -266 44 20 70 75 56
116 -6 15 -116 160 -244 322 -258 323 -294 358 -425 398 -94 29 -391 29 -484
0 -91 -28 -154 -70 -235 -157 l-71 -76 -302 359 c-167 198 -324 378 -349 401
-56 51 -147 97 -220 112 -29 6 -116 11 -192 11 l-140 0 0 815 0 815 130 0 130
0 0 -295 c0 -324 3 -341 58 -364 20 -9 104 -11 286 -9 l258 3 24 28 c26 30 32
83 14 118 -23 42 -58 49 -255 49 l-185 0 0 235 0 235 118 0 c116 0 120 1 158
29 21 16 149 140 284 275 l245 246 395 0 394 0 -227 -228 c-218 -219 -227
-229 -227 -267 0 -38 9 -48 242 -282 l242 -243 -207 0 -207 0 -32 -29 c-27
-24 -33 -36 -33 -71 0 -35 6 -47 33 -71 l32 -29 346 0 346 0 29 29 c23 23 29
38 29 72 0 43 0 43 -290 334 l-290 290 270 270 c148 148 274 282 281 297 14
35 5 73 -26 104 l-24 24 -438 0 -438 0 196 198 c108 108 204 208 213 222 26
40 20 78 -18 116 l-34 34 -911 0 -911 0 0 50 c0 42 3 50 18 50 56 0 127 34
177 83 139 139 105 363 -69 455 l-51 27 -325 2 c-259 2 -334 -1 -371 -12z
m660 -200 c49 -25 57 -90 16 -130 l-24 -25 -296 0 -296 0 -24 25 c-17 16 -25
35 -25 60 0 25 8 44 25 60 l24 25 286 0 c231 0 291 -3 314 -15z m-239 -1880
l0 -1525 -70 0 -70 0 0 1525 0 1525 70 0 70 0 0 -1525z m1285 765 l-460 -460
-312 0 -313 0 0 460 0 460 772 0 773 0 -460 -460z"/>
<path d="M3490 2648 c-14 -7 -33 -30 -43 -50 -16 -33 -16 -40 -4 -71 30 -71
106 -90 158 -38 78 79 -13 209 -111 159z"/>
</g>
</svg>
